<svg width="24" height="24" viewBox="0 0 24 24" fill="none" xmlns="http://www.w3.org/2000/svg">
<g clip-path="url(#clip0_5060_201)">
<path d="M19.5492 10.9969C19.0942 9.9728 18.4328 9.05363 17.6063 8.29689L16.9242 7.67111C16.9011 7.65044 16.8732 7.63578 16.843 7.6284C16.8129 7.62102 16.7814 7.62116 16.7513 7.62879C16.7212 7.63643 16.6935 7.65133 16.6705 7.6722C16.6475 7.69306 16.63 7.71924 16.6195 7.74845L16.3148 8.62267C16.125 9.17111 15.7758 9.73126 15.2813 10.282C15.2484 10.3172 15.2109 10.3266 15.1852 10.3289C15.1594 10.3313 15.1195 10.3266 15.0844 10.2938C15.0516 10.2656 15.0352 10.2234 15.0375 10.1813C15.1242 8.77033 14.7023 7.17892 13.7789 5.44689C13.0148 4.00783 11.9531 2.88518 10.6266 2.10236L9.65859 1.53283C9.53203 1.45783 9.37031 1.55627 9.37734 1.70393L9.42891 2.82893C9.46406 3.59768 9.375 4.27736 9.16406 4.84221C8.90625 5.53361 8.53594 6.1758 8.0625 6.75236C7.73302 7.15305 7.35959 7.51548 6.94922 7.83283C5.96087 8.59259 5.15722 9.56611 4.59844 10.6805C4.04103 11.8046 3.75068 13.0422 3.75 14.2969C3.75 15.4031 3.96797 16.4742 4.39922 17.4844C4.81562 18.457 5.41654 19.3396 6.16875 20.0836C6.92813 20.8336 7.80938 21.4242 8.79141 21.8344C9.80859 22.2609 10.8867 22.4766 12 22.4766C13.1133 22.4766 14.1914 22.2609 15.2086 21.8367C16.1882 21.429 17.079 20.8343 17.8313 20.0859C18.5906 19.3359 19.1859 18.4594 19.6008 17.4867C20.0314 16.4793 20.2523 15.3948 20.25 14.2992C20.25 13.1555 20.0156 12.0445 19.5492 10.9969Z" fill="#04B90B"/>
<path d="M2.81134 6.06699C2.76399 5.97767 2.63601 5.97767 2.58866 6.06699C2.22251 6.75761 1.65761 7.32251 0.966993 7.68866C0.877669 7.73601 0.877669 7.86399 0.966993 7.91134C1.65761 8.27749 2.22251 8.84239 2.58866 9.53301C2.63601 9.62233 2.76399 9.62233 2.81134 9.53301C3.17749 8.84239 3.74239 8.27749 4.43301 7.91134C4.52233 7.86399 4.52233 7.73601 4.43301 7.68866C3.74239 7.32251 3.17749 6.75761 2.81134 6.06699Z" fill="#04B90B"/>
<path d="M20.8486 0.0893237C20.7854 -0.0297746 20.6148 -0.0297745 20.5516 0.0893238C20.0634 1.01014 19.3102 1.76334 18.3894 2.25154C18.2703 2.31468 18.2703 2.48532 18.3894 2.54846C19.3102 3.03666 20.0634 3.78986 20.5516 4.71068C20.6148 4.82977 20.7854 4.82977 20.8486 4.71068C21.3368 3.78986 22.09 3.03666 23.0108 2.54846C23.1299 2.48532 23.1299 2.31468 23.0108 2.25154C22.09 1.76334 21.3368 1.01014 20.8486 0.0893237Z" fill="#04B90B"/>
</g>
<defs>
<clipPath id="clip0_5060_201">
<rect width="24" height="24" fill="white"/>
</clipPath>
</defs>
</svg>
