<svg width="48" height="48" viewBox="0 0 48 48" fill="none" xmlns="http://www.w3.org/2000/svg">
<path fill-rule="evenodd" clip-rule="evenodd" d="M4 26C4 22.6863 6.68629 20 10 20H38C41.3137 20 44 22.6863 44 26C44 35.9411 35.9411 44 26 44H22C12.0589 44 4 35.9411 4 26ZM10 24H38C39.1046 24 40 24.8954 40 26C40 26.679 39.9517 27.3468 39.8582 28H8.14178C8.04834 27.3468 8 26.679 8 26C8 24.8954 8.89543 24 10 24ZM9.34726 32C11.5942 36.7299 16.4152 40 22 40H26C31.5848 40 36.4058 36.7299 38.6527 32H9.34726Z" fill="#777E91"/>
<path d="M18 4C19.1046 4 20 4.89543 20 6C20 8.45315 19.3455 9.78123 18.7889 10.8944L18.7729 10.9263C18.3372 11.7975 18 12.4717 18 14C18 15.1046 17.1046 16 16 16C14.8954 16 14 15.1046 14 14C14 11.5468 14.6545 10.2188 15.2111 9.10557L15.2271 9.07371C15.6628 8.20251 16 7.52827 16 6C16 4.89543 16.8954 4 18 4Z" fill="#777E91"/>
<path d="M26 4C27.1046 4 28 4.89543 28 6C28 8.45315 27.3455 9.78123 26.7889 10.8944L26.7729 10.9263C26.3372 11.7975 26 12.4717 26 14C26 15.1046 25.1046 16 24 16C22.8954 16 22 15.1046 22 14C22 11.5468 22.6545 10.2188 23.2111 9.10557L23.2271 9.07371C23.6628 8.20251 24 7.52827 24 6C24 4.89543 24.8954 4 26 4Z" fill="#777E91"/>
<path d="M36 6C36 4.89543 35.1046 4 34 4C32.8954 4 32 4.89543 32 6C32 7.52827 31.6628 8.20251 31.2271 9.07371L31.2111 9.10557C30.6545 10.2188 30 11.5468 30 14C30 15.1046 30.8954 16 32 16C33.1046 16 34 15.1046 34 14C34 12.4717 34.3372 11.7975 34.7729 10.9263L34.7889 10.8944C35.3455 9.78123 36 8.45315 36 6Z" fill="#777E91"/>
</svg>
