<svg width="367" height="143" viewBox="0 0 367 143" fill="none" xmlns="http://www.w3.org/2000/svg">
<path fill-rule="evenodd" clip-rule="evenodd" d="M2.95442 9.6403L-9.22773e-06 14.8625L311.238 191.841L317.176 181.371L2.95442 9.6403ZM321.131 183.52L315.143 194.077L352.056 215.215L358.441 203.799L321.131 183.52Z" fill="#2F363A"/>
<path d="M317.176 181.371L311.238 191.841L315.143 194.077L321.131 183.52L317.176 181.371Z" fill="#F7E89D"/>
<path fill-rule="evenodd" clip-rule="evenodd" d="M8.40801 1.33354e-05L5.5293 5.2643L319.291 177.73L325.077 167.175L8.40801 1.33354e-05ZM329.062 169.267L323.227 179.909L360.442 200.512L366.661 189.005L329.062 169.267Z" fill="#2F363A"/>
<path d="M325.077 167.175L319.291 177.73L323.227 179.909L329.062 169.267L325.077 167.175Z" fill="#F7E89D"/>
</svg>
